<svg width="32" height="32" fill="#363661" viewBox="0 0 18 18" xmlns="http://www.w3.org/2000/svg">
<path d="M9.05 17.1625C4.42449 17.1625 0.675 13.413 0.675 8.78754C0.675 5.03721 3.13976 1.86309 6.5375 0.796112V2.57496C5.09777 3.15957 3.90591 4.22627 3.16577 5.59257C2.42564 6.95888 2.18324 8.53989 2.48003 10.0652C2.77681 11.5905 3.59435 12.9652 4.79279 13.9543C5.99123 14.9434 7.49611 15.4854 9.05 15.4875C10.3848 15.4875 11.6892 15.0889 12.796 14.3429C13.9028 13.5968 14.7617 12.5373 15.2626 11.3H17.0414C15.9744 14.6978 12.8003 17.1625 9.05 17.1625V17.1625ZM17.3831 9.62504H8.2125V0.454412C8.48804 0.426774 8.76776 0.412537 9.05 0.412537C13.6755 0.412537 17.425 4.16202 17.425 8.78754C17.425 9.06977 17.4108 9.3495 17.3831 9.62504ZM9.8875 2.13946V7.95004H15.6981C15.5117 6.47403 14.8395 5.10198 13.7875 4.05C12.7356 2.99801 11.3635 2.32588 9.8875 2.13946Z" fill="#6A6A9F"/>
</svg>
