<svg width="32" height="32" viewBox="0 0 21 21" fill="#363661" xmlns="http://www.w3.org/2000/svg">
	<g clip-path="url(#clip0)">
		<path d="M8.71242 12.4625V14.1375C7.37971 14.1375 6.10158 14.667 5.15921 15.6093C4.21684 16.5517 3.68742 17.8298 3.68742 19.1625H2.01242C2.01242 17.3856 2.71831 15.6814 3.97481 14.4249C5.2313 13.1684 6.93547 12.4625 8.71242 12.4625ZM8.71242 11.625C5.93611 11.625 3.68742 9.37636 3.68742 6.60004C3.68742 3.82373 5.93611 1.57504 8.71242 1.57504C11.4887 1.57504 13.7374 3.82373 13.7374 6.60004C13.7374 9.37636 11.4887 11.625 8.71242 11.625ZM8.71242 9.95004C10.5633 9.95004 12.0624 8.45092 12.0624 6.60004C12.0624 4.74917 10.5633 3.25004 8.71242 3.25004C6.86155 3.25004 5.36242 4.74917 5.36242 6.60004C5.36242 8.45092 6.86155 9.95004 8.71242 9.95004ZM13.7374 18.7438L11.276 20.0377L11.7458 17.2974L9.75511 15.3561L12.5071 14.9558L13.7374 12.4625L14.9685 14.9558L17.7197 15.3561L15.729 17.2974L16.198 20.0377L13.7374 18.7438Z" fill="#6A6A9F" />
	</g>
	<defs>
		<clipPath id="clip0">
			<rect width="20.1" height="20.1" fill="white" transform="translate(0.337418 0.737549)" />
		</clipPath>
	</defs>
</svg>
